<svg width="512" height="512" viewBox="0 0 512 512" fill="none" xmlns="http://www.w3.org/2000/svg">
<path d="M380.732 35.423C398.888 53.1078 408.593 77.4975 414.21 104.506C415.554 99.5884 415.554 99.5884 416.925 94.5709C431.45 93.2011 437.987 99.0763 448.908 110.082C464.47 129.862 473.518 156.025 474.377 183.409C473.29 201.87 465.613 211.201 454.774 222.906C451.212 226.497 447.648 230.086 444.081 233.669C442.289 235.855 440.497 238.041 438.65 240.293C441.339 238.107 444.027 235.921 446.797 233.669C458.814 229.957 468.593 229.283 480.403 234.083C490.296 242.702 494.698 251.507 497.354 265.999C499.589 296.937 496.511 323.151 480.403 348.058C471.268 359.895 461.026 366.069 448.664 371.319C445.359 372.89 442.055 374.461 438.65 376.08C437.306 380.998 437.306 380.998 435.935 386.015C437.559 385.264 439.183 384.512 440.857 383.738C442.817 383.397 444.777 383.055 446.797 382.703C451.242 387.606 451.242 387.606 454.944 392.639C449.89 420.757 441.115 442.774 422.261 460.869C408.117 471.575 394.652 474.161 378.334 476.781C368.818 479.252 363.576 484.055 356.164 491.4C341.757 504.155 324.065 502.859 307.251 500.391C291.822 496.538 280.141 486.971 270.453 471.542C260.458 450.613 258.273 426.281 256.705 402.575C255.809 402.575 254.913 402.575 253.99 402.575C251.884 365.257 250.895 328.186 251.009 290.786C251.014 285.743 251.018 280.7 251.02 275.657C251.031 262.596 251.057 249.535 251.088 236.474C251.116 223.062 251.128 209.649 251.141 196.236C251.17 170.075 251.216 143.915 251.274 117.754C253.066 116.661 254.859 115.568 256.705 114.442C257.726 106.05 258.474 97.8335 259.081 89.3961C261.348 63.8372 264.657 43.573 280.636 25.4357C312.501 -0.471911 350.456 11.9688 380.732 35.423ZM256.705 144.249C256.705 168.293 256.705 192.337 256.705 217.11C257.601 217.11 258.497 217.11 259.421 217.11C259.421 193.066 259.421 169.022 259.421 144.249C258.525 144.249 257.628 144.249 256.705 144.249ZM256.705 220.422C259.421 230.357 259.421 230.357 259.421 230.357L256.705 220.422ZM256.705 233.669C259.421 240.293 259.421 240.293 259.421 240.293L256.705 233.669ZM256.705 243.605C259.421 253.541 259.421 253.541 259.421 253.541L256.705 243.605ZM256.705 256.852C259.421 263.476 259.421 263.476 259.421 263.476L256.705 256.852ZM256.705 273.412C256.705 281.062 256.705 288.713 256.705 296.595C257.601 296.595 258.497 296.595 259.421 296.595C259.421 288.944 259.421 281.294 259.421 273.412C258.525 273.412 257.628 273.412 256.705 273.412ZM256.705 299.907C259.421 309.842 259.421 309.842 259.421 309.842L256.705 299.907ZM411.494 369.456C414.183 374.374 414.183 374.374 416.925 379.392C419.614 378.299 422.302 377.206 425.072 376.08C424.176 373.894 423.28 371.708 422.357 369.456C418.772 369.456 415.187 369.456 411.494 369.456ZM427.788 372.768C427.788 374.954 427.788 377.139 427.788 379.392C429.58 379.392 431.372 379.392 433.219 379.392C433.219 377.206 433.219 375.02 433.219 372.768C431.427 372.768 429.634 372.768 427.788 372.768Z" fill="#5AAC34"/>
<path d="M223.27 20.2883C238.672 37.7246 247.797 52.9647 249.429 78.7829C249.652 88.1125 249.693 97.4196 249.674 106.753C249.687 110.288 249.701 113.823 249.715 117.465C249.753 129.11 249.75 140.755 249.744 152.4C249.755 160.523 249.766 168.646 249.779 176.769C249.799 193.783 249.799 210.795 249.784 227.809C249.769 249.571 249.815 271.333 249.877 293.095C249.917 309.868 249.919 326.642 249.911 343.415C249.912 351.437 249.926 359.459 249.954 367.48C249.987 378.715 249.969 389.948 249.937 401.183C249.958 404.471 249.979 407.759 250 411.146C249.85 435.724 247.065 458.796 234.582 478.792C221.204 494.784 205.224 501.702 186.804 504C171.497 500.989 152.156 491.349 140.883 477.552C135.145 476.909 129.404 476.294 123.663 475.692C98.8253 471.54 80.8825 457.003 65.0801 433.334C57.9367 419.681 56.188 404.122 54.4441 388.289C61.1296 386.653 61.1296 386.653 67.9502 384.983C66.1674 383.892 64.3846 382.801 62.5477 381.677C62.5477 379.495 62.5477 377.313 62.5477 375.065C59.8109 373.506 59.8109 373.506 57.0187 371.914C32.18 357.329 32.18 357.329 24.7307 345.311C24.7307 343.129 24.7307 340.947 24.7307 338.699C22.9479 337.608 21.1651 336.517 19.3283 335.393C11.285 309.85 8.23065 282.736 13.9258 256.049C19.6851 243.307 26.7885 235.531 36.7174 227.741C46.3654 225.725 53.4409 228.973 62.5477 232.907C62.5477 230.725 62.5477 228.543 62.5477 226.295C57.1993 227.931 57.1993 227.931 51.7429 229.601C49.105 223.897 46.4671 218.193 43.8292 212.489C41.2236 207.054 38.3916 201.784 35.5356 196.54C33.8262 189.063 33.8262 189.063 32.4967 181.043C32.044 178.371 31.5914 175.699 31.125 172.946C30.7977 170.913 30.4704 168.881 30.1331 166.786C31.0245 166.786 31.9159 166.786 32.8344 166.786C33.2313 164.983 33.6283 163.181 34.0372 161.324C41.1976 131.86 51.8437 109.313 73.5425 92.9948C80.0545 90.1876 83.1199 91.2998 89.5599 94.0538C92.2341 95.1448 94.9083 96.2358 97.6636 97.3598C98.0605 95.5188 98.4575 93.6777 98.8664 91.7809C106.529 59.8747 118.687 41.7411 142.329 25.3764C167.487 10.0542 197.187 4.89664 223.27 20.2883ZM67.9502 232.907C67.0588 235.089 66.1674 237.27 65.249 239.519C71.9345 241.155 71.9345 241.155 78.755 242.825C75.1894 239.552 71.6238 236.279 67.9502 232.907ZM78.755 242.825C79.6464 245.007 80.5378 247.189 81.4563 249.437C83.2391 248.346 85.0219 247.255 86.8587 246.131C84.1845 245.04 81.5103 243.949 78.755 242.825ZM94.9623 365.147C94.9623 368.42 94.9623 371.693 94.9623 375.065C98.528 371.792 102.094 368.519 105.767 365.147C102.202 365.147 98.636 365.147 94.9623 365.147ZM76.0538 378.371C76.0538 380.553 76.0538 382.735 76.0538 384.983C80.5108 383.892 84.9678 382.801 89.5599 381.677C89.5599 380.586 89.5599 379.495 89.5599 378.371C85.1029 378.371 80.6459 378.371 76.0538 378.371Z" fill="#F85F22"/>
<path d="M358.215 97.0149C372.177 102.612 377.808 113.015 384.36 128.152C393.359 150.42 397.154 171.233 396.995 195.788C396.975 199.477 396.975 199.477 396.955 203.241C396.53 227.448 393.831 249.238 381.457 268.991C374.394 277.115 369.609 279.919 360.626 283.838C360.684 287.146 360.741 290.454 360.8 293.862C361 306.301 361.124 318.74 361.227 331.181C361.281 336.534 361.355 341.887 361.451 347.239C362.17 388.638 360.373 426.515 336.039 458.701C327.16 462 327.16 462 319.647 462C318.746 460.911 317.844 459.822 316.915 458.701C317.887 441.987 320.544 428.486 325.659 413.005C334.174 385.349 334.422 357.333 335.014 328.172C335.12 323.9 335.226 319.628 335.335 315.226C335.59 304.764 335.825 294.301 336.039 283.838C333.933 282.923 331.827 282.009 329.657 281.067C316.033 273.902 309.077 260.409 303.768 244.246C295.144 208.836 298.347 166.283 312.337 133.488C323.499 112.048 335.217 91.1012 358.215 97.0149Z" fill="#FBFDFA"/>
<path d="M137.929 103C144.734 103.414 144.734 103.414 147.456 106.73C147.888 114.08 148.14 121.446 148.317 128.812C148.374 131.015 148.43 133.218 148.488 135.488C148.667 142.548 148.827 149.609 148.987 156.67C149.104 161.447 149.223 166.224 149.343 171.001C149.635 182.732 149.911 194.463 150.178 206.196C152.873 205.101 155.568 204.007 158.344 202.88C159.242 170.056 160.141 137.233 161.066 103.414C166.456 103.414 171.845 103.414 177.398 103.414C180.12 106.73 180.12 106.73 180.429 116.237C180.415 120.387 180.401 124.536 180.386 128.812C180.382 131.015 180.378 133.218 180.375 135.488C180.359 142.549 180.325 149.609 180.291 156.67C180.277 161.447 180.264 166.224 180.253 171.001C180.223 182.732 180.176 194.464 180.12 206.196C183.713 205.101 187.307 204.007 191.009 202.88C191.077 199.985 191.145 197.089 191.215 194.106C191.474 183.398 191.744 172.69 192.022 161.982C192.14 157.342 192.254 152.701 192.362 148.06C192.519 141.402 192.694 134.744 192.869 128.087C192.969 124.076 193.069 120.065 193.172 115.933C193.731 106.73 193.731 106.73 196.453 103.414C203.258 103 203.258 103 210.063 103.414C218.368 113.53 213.668 152.385 213.738 166.799C213.783 173.555 213.857 180.312 213.961 187.067C214.111 196.807 214.17 206.543 214.21 216.285C214.271 219.29 214.333 222.295 214.397 225.392C214.358 239.576 213.939 249.51 206.571 260.893C200.453 267.756 196.003 272.34 188.287 275.821C187.944 290.904 187.7 305.983 187.539 321.07C187.471 326.175 187.379 331.281 187.26 336.385C186.547 367.623 188.173 394.496 197.098 424.023C201.037 437.056 202.591 447.606 201.897 461.491C193.969 462.368 189.737 462.772 183.172 456.971C156.418 419.243 156.896 380.568 157.663 333.221C157.718 327.318 157.768 321.414 157.812 315.511C157.931 301.174 158.119 286.841 158.344 272.506C156.253 272.156 154.161 271.805 152.007 271.444C141.213 268.099 137.475 260.042 131.124 249.297C127.496 236.044 128.013 223.302 128.04 209.485C128.036 205.103 128.036 205.103 128.032 200.631C128.03 194.461 128.035 188.291 128.047 182.121C128.061 172.64 128.047 163.159 128.029 153.678C128.031 147.69 128.035 141.703 128.04 135.715C128.034 132.862 128.029 130.01 128.023 127.071C128.1 103.599 128.1 103.599 137.929 103Z" fill="#FDFBF9"/>
<path d="M264.619 256C265.501 256 266.384 256 267.292 256C267.314 258.309 267.336 260.619 267.358 262.998C267.566 284.758 267.799 306.517 268.061 328.277C268.194 339.463 268.318 350.65 268.42 361.837C268.542 374.698 268.697 387.557 268.859 400.417C268.889 404.436 268.92 408.455 268.952 412.596C269.005 416.322 269.058 420.047 269.113 423.885C269.149 427.169 269.184 430.452 269.221 433.836C269.526 442.931 269.526 442.931 275.311 452.07C276.193 452.07 277.076 452.07 277.984 452.07C278.205 455.771 278.425 459.472 278.653 463.285C279.563 475.177 279.563 475.177 285.001 479.694C287.096 480.448 289.191 481.202 291.349 481.978C294.216 483.144 297.083 484.309 300.037 485.509C318.912 491.376 333.79 492.429 352.829 488.625C352.829 486.432 352.829 484.238 352.829 481.978C358.121 478.688 358.121 478.688 363.521 475.332C363.521 473.139 363.521 470.945 363.521 468.686C372.571 466.885 380.912 465.258 390.084 465.985C400.142 465.22 406.389 460.827 415.018 454.653C417.313 453.374 417.313 453.374 419.654 452.07C422.3 453.715 422.3 453.715 425 455.393C414.354 467.791 406.229 470.847 391.921 473.463C375.411 476.878 365.855 482.381 352.829 495.271C334.406 503.669 315.167 504.503 296.476 496.089C280.557 485.784 270.174 469.813 264.619 448.746C263.976 439.431 263.976 439.431 264.012 429.166C264.013 425.309 264.013 421.451 264.014 417.477C264.041 413.346 264.069 409.216 264.097 404.96C264.105 400.706 264.112 396.451 264.12 392.067C264.141 380.796 264.193 369.526 264.252 358.256C264.307 346.738 264.331 335.221 264.358 323.704C264.417 301.136 264.507 278.568 264.619 256Z" fill="#529335"/>
<path d="M260.83 75C261.876 75 262.922 75 264 75C264 100.07 264 125.14 264 150.97C262.954 150.97 261.908 150.97 260.83 150.97C260.837 152.799 260.844 154.629 260.851 156.514C261.481 328.223 261.481 328.223 257.66 402C256.614 402 255.568 402 254.49 402C252.033 364.782 250.878 327.81 251.01 290.51C251.016 285.48 251.021 280.451 251.024 275.421C251.036 262.395 251.067 249.369 251.102 236.343C251.135 222.966 251.149 209.589 251.165 196.212C251.199 170.121 251.253 144.03 251.32 117.939C253.412 116.849 255.504 115.759 257.66 114.636C259.147 105.335 259.147 105.335 259.641 94.6117C259.878 90.9628 260.115 87.3139 260.359 83.5543C260.515 80.7314 260.67 77.9085 260.83 75Z" fill="#B7AF4B"/>
<path d="M264.584 256C265.433 256 266.281 256 267.155 256C267.176 258.29 267.196 260.581 267.218 262.94C267.418 284.521 267.643 306.1 267.894 327.68C268.022 338.774 268.141 349.869 268.239 360.964C268.356 373.718 268.505 386.471 268.661 399.225C268.691 403.211 268.72 407.197 268.751 411.304C268.802 414.998 268.853 418.692 268.906 422.499C268.94 425.755 268.974 429.012 269.01 432.368C269.303 441.388 269.303 441.388 274.866 450.451C275.714 450.451 276.563 450.451 277.437 450.451C277.649 454.121 277.861 457.792 278.079 461.574C278.883 473.605 278.883 473.605 284.827 477.641C287.53 478.864 287.53 478.864 290.289 480.113C294.787 485.468 294.787 485.468 298 490C290.836 489.73 286.388 488.147 281.041 481.928C269.306 464.884 263.922 450.868 264.001 427.737C264.001 423.911 264.002 420.085 264.002 416.143C264.029 412.047 264.055 407.951 264.082 403.731C264.09 399.511 264.097 395.291 264.104 390.944C264.124 379.766 264.174 368.589 264.231 357.411C264.284 345.989 264.308 334.567 264.333 323.145C264.39 300.763 264.476 278.382 264.584 256Z" fill="#47952E"/>
<path d="M81.3333 369C85.8433 370.082 90.3533 371.165 95 372.28C89.5333 378.84 89.5333 378.84 82.3583 379.25C80.2161 379.115 78.0738 378.979 75.8667 378.84C75.8667 381.005 75.8667 383.17 75.8667 385.4C78.5727 385.4 81.2787 385.4 84.0667 385.4C83.1647 388.647 82.2627 391.894 81.3333 395.24C75.0193 395.24 68.7053 395.24 62.2 395.24C65.3623 415.702 65.3623 415.702 75.8667 431.32C75.8667 434.567 75.8667 437.814 75.8667 441.16C77.6707 441.16 79.4747 441.16 81.3333 441.16C82.2353 444.407 83.1373 447.654 84.0667 451C71.8666 446.12 65.1357 434.725 59.4667 421.48C56.9029 410.641 55.2536 399.839 54 388.68C58.51 387.598 63.02 386.515 67.6667 385.4C65.8627 384.318 64.0587 383.235 62.2 382.12C62.2 379.955 62.2 377.79 62.2 375.56C71.671 373.936 71.671 373.936 81.3333 372.28C81.3333 371.198 81.3333 370.115 81.3333 369Z" fill="#E4522A"/>
<path d="M153.455 100C161.555 100 169.655 100 178 100C178 101.093 178 102.186 178 103.312C171.7 103.312 165.4 103.312 158.909 103.312C158.909 136.106 158.909 168.9 158.909 202.688C155.309 203.781 151.709 204.874 148 206C148 203.814 148 201.628 148 199.375C149.8 199.375 151.6 199.375 153.455 199.375C153.455 166.581 153.455 133.787 153.455 100Z" fill="#FA4908"/>
<path d="M236 471C232.691 483.567 226.474 488.64 217.091 494.641C199.586 503.886 186.065 506.301 167.897 497.603C164.209 495.526 160.543 493.374 157 490.952C157 489.855 157 488.758 157 487.627C164.192 487.627 171.383 487.627 178.793 487.627C178.793 488.724 178.793 489.822 178.793 490.952C190.48 490.952 202.166 490.952 214.207 490.952C214.207 488.758 214.207 486.563 214.207 484.302C216.904 484.302 219.601 484.302 222.379 484.302C223.278 481.009 224.177 477.717 225.103 474.325C230.552 471 230.552 471 236 471Z" fill="#DC542C"/>
<path d="M223.392 20.8204C229.485 26.969 235.428 33.1021 241 39.8492C240.097 41.879 239.195 43.9087 238.265 46C236.347 44.224 234.428 42.4479 232.452 40.6181C229.857 38.3346 227.262 36.0512 224.588 33.6985C221.203 30.2733 221.203 30.2733 217.75 26.7789C196.923 15.0709 170.482 21.0449 148 24.4724C165.386 4.92494 203.279 9.31519 223.392 20.8204Z" fill="#DF7026"/>
<path d="M251.095 279C254.444 280.646 254.444 280.646 257.861 282.324C262.47 307.902 260.98 333.146 259.764 358.992C259.587 363.138 259.411 367.284 259.229 371.555C258.794 381.704 258.337 391.852 257.861 402C256.745 402 255.628 402 254.478 402C251.448 360.944 250.706 320.158 251.095 279Z" fill="#B3A248"/>
<path d="M358.375 409C361.374 414.87 361.374 414.87 364 422.152C359.396 439.567 353.258 449.31 341.5 461.609C340.572 462.694 339.644 463.779 338.688 464.897C332.126 465.032 325.561 465.037 319 464.897C321.349 463.778 321.349 463.778 323.746 462.637C342.352 450.291 349.835 430.88 358.375 409Z" fill="#32891F"/>
<path d="M391 355C401.085 356.001 404.393 357.318 411.187 366.602C412.941 369.456 414.694 372.31 416.5 375.25C419.305 377.478 422.11 379.705 425 382C416.152 380.36 408.012 378.63 399.5 375.25C397.906 368.711 397.906 368.711 396.667 361.75C394.797 359.522 392.927 357.295 391 355Z" fill="#65AE44"/>
<path d="M413 357C418.393 357.539 423.785 358.099 429.176 358.668C433.681 359.132 433.681 359.132 438.276 359.606C444.861 360.554 450.683 361.883 457 364.624C449.066 370.466 440.778 368.827 432.088 368.674C430.26 368.656 428.432 368.639 426.548 368.621C422.032 368.577 417.516 368.508 413 368.435C413 364.662 413 360.888 413 357Z" fill="#509D2E"/>
<path d="M81.25 369C85.7875 370.1 90.325 371.2 95 372.333C89.5 379 89.5 379 82.2812 379.417C80.1259 379.279 77.9706 379.142 75.75 379C76.6575 382.3 77.565 385.6 78.5 389C73.055 386.8 67.61 384.6 62 382.333C62 380.133 62 377.933 62 375.667C71.5287 374.017 71.5287 374.017 81.25 372.333C81.25 371.233 81.25 370.133 81.25 369Z" fill="#E8723F"/>
<path d="M358.234 409C361.838 413.972 361.838 413.972 364 421.727C360.922 429.905 356.892 436.532 352.467 444C349.715 437.096 349.169 432.662 351.319 425.468C353.501 419.918 355.858 414.453 358.234 409Z" fill="#41972C"/>
<path d="M187.186 378C193.88 384.142 195.98 386.943 197 396.971C196.896 400.063 196.793 403.155 196.686 406.341C196.605 409.46 196.524 412.579 196.441 415.793C196.337 418.171 196.234 420.55 196.127 423C186.891 412.273 187.216 404.337 187 389.25C187.061 385.538 187.123 381.825 187.186 378Z" fill="#F53312"/>
<path d="M447 113C455.802 116.727 456.575 117.993 460.903 127.716C461.845 129.754 462.787 131.792 463.758 133.891C465.537 139.909 465.537 139.909 462.889 150C460.727 145.734 458.578 141.457 456.434 137.176C455.236 134.796 454.038 132.415 452.803 129.963C449.648 123.091 449.648 123.091 447 113Z" fill="#509A2E"/>
<path d="M118.167 46C119.102 49.366 120.037 52.732 121 56.2C119.072 58.3038 119.072 58.3038 117.104 60.45C112.331 66.6179 109.687 72.3597 106.833 80C104.531 74.475 104.531 74.475 104 66.4C108.16 58.7633 112.949 52.7191 118.167 46Z" fill="#EB6F24"/>
<path d="M145.308 472.085C146.196 475.357 147.085 478.629 148 482C136.45 479.819 124.9 477.637 113 475.39C113 474.299 113 473.209 113 472.085C116.867 471.438 120.738 470.825 124.611 470.226C126.766 469.881 128.921 469.536 131.142 469.18C137.231 468.78 137.231 468.78 145.308 472.085Z" fill="#DE5F33"/>
<path d="M251 98C253.31 98 255.62 98 258 98C256.845 102.29 255.69 106.58 254.5 111C253.345 106.71 252.19 102.42 251 98Z" fill="#BCAD49"/>
<path d="M256 415C258 428 258 428 258 428L256 415Z" fill="#A98F43"/>
<path d="M141 18C148 23 148 23 148 23L141 18Z" fill="#D9853C"/>
<path d="M357 490C364 492 364 492 364 492L357 490Z" fill="#789E49"/>
<path d="M54 375C60 378 60 378 60 378L54 375Z" fill="#E66C3A"/>
<path d="M449 226C455 229 455 229 455 229L449 226Z" fill="#80BA56"/>
<path d="M13 165C19 171 19 171 19 171L13 165Z" fill="#DF7738"/>
</svg>
